<svg width="12" height="10" viewBox="0 0 12 10" fill="none" xmlns="http://www.w3.org/2000/svg">
   <path
      d="M7.81214 0.865774C7.96872 0.972429 8.07651 1.13691 8.1118 1.32304C8.1471 1.50917 8.10701 1.7017 8.00036 1.85827C7.8937 2.01485 7.72922 2.12264 7.54309 2.15793C7.35696 2.19323 7.16443 2.15314 7.00786 2.04649C6.34841 1.59819 5.55791 1.38348 4.76228 1.43656C3.96666 1.48963 3.21168 1.80744 2.61762 2.33936C2.02357 2.87127 1.62461 3.58669 1.4843 4.37165C1.34399 5.1566 1.47041 5.96593 1.84342 6.6707C2.21642 7.37548 2.81455 7.93515 3.54253 8.26056C4.2705 8.58597 5.08643 8.6584 5.86035 8.46631C6.63426 8.27422 7.32162 7.82866 7.81294 7.20062C8.30426 6.57257 8.57127 5.79817 8.57143 5.00077C8.57143 4.81133 8.64668 4.62965 8.78064 4.4957C8.91459 4.36174 9.09627 4.28649 9.28571 4.28649C9.47515 4.28649 9.65684 4.36174 9.79079 4.4957C9.92474 4.62965 10 4.81133 10 5.00077C9.99983 6.11719 9.62602 7.20144 8.93813 8.08076C8.25025 8.96008 7.28786 9.58389 6.20431 9.85279C5.12076 10.1217 3.97838 10.0202 2.95919 9.56454C1.94 9.10886 1.10263 8.32519 0.58051 7.33839C0.0583853 6.35158 -0.118458 5.21842 0.0781545 4.11945C0.274767 3.02048 0.833525 2.01892 1.6654 1.27436C2.49728 0.529796 3.55441 0.0850614 4.66838 0.0110141C5.78234 -0.0630332 6.88904 0.237867 7.81214 0.865774V0.865774Z"
      fill="#EE1100" fill-opacity="0.866667" />
   <path
      d="M7.52775 6.79133C7.44872 6.84189 7.36051 6.87639 7.26815 6.89285C7.17579 6.90932 7.08109 6.90744 6.98946 6.88731C6.89782 6.86718 6.81106 6.82919 6.7341 6.77553C6.65715 6.72187 6.59152 6.65357 6.54096 6.57454C6.4904 6.49552 6.4559 6.4073 6.43944 6.31494C6.42297 6.22258 6.42485 6.12788 6.44498 6.03625C6.46512 5.94462 6.5031 5.85785 6.55676 5.7809C6.61042 5.70395 6.67872 5.63832 6.75775 5.58776L9.24489 3.99704C9.40445 3.8983 9.59645 3.8663 9.77941 3.90798C9.96236 3.94965 10.1216 4.06164 10.2226 4.21974C10.3237 4.37784 10.3585 4.56936 10.3195 4.75291C10.2805 4.93645 10.1708 5.09727 10.0142 5.20062L7.52775 6.79133Z"
      fill="#EE1100" fill-opacity="0.866667" />
   <path
      d="M11.3592 6.7222C11.4322 6.89444 11.4346 7.08842 11.366 7.26245C11.2975 7.43648 11.1634 7.57667 10.9926 7.6529C10.8218 7.72914 10.6279 7.73533 10.4526 7.67016C10.2772 7.60498 10.1345 7.47363 10.055 7.30434L8.97781 4.89005C8.93744 4.8041 8.9146 4.71096 8.91065 4.61608C8.9067 4.52119 8.92171 4.42647 8.9548 4.33746C8.98789 4.24845 9.0384 4.16693 9.10337 4.09767C9.16834 4.02841 9.24647 3.9728 9.33319 3.93409C9.41991 3.89539 9.51348 3.87436 9.60842 3.87225C9.70336 3.87013 9.79777 3.88697 9.88613 3.92178C9.97448 3.95659 10.055 4.00867 10.123 4.07497C10.191 4.14127 10.2451 4.22046 10.2821 4.30791L11.3592 6.7222Z"
      fill="#EE1100" fill-opacity="0.866667" />
</svg>